<?xml version="1.0" standalone="no"?>
<!DOCTYPE svg PUBLIC "-//W3C//DTD SVG 20010904//EN"
 "http://www.w3.org/TR/2001/REC-SVG-20010904/DTD/svg10.dtd">
<svg version="1.0" xmlns="http://www.w3.org/2000/svg"
 width="2288.000000pt" height="738.000000pt" viewBox="0 0 2288.000000 738.000000"
 preserveAspectRatio="xMidYMid meet">

<g transform="translate(0.000000,738.000000) scale(0.100000,-0.100000)"
fill="#000000" stroke="none">
<path d="M20665 6754 c-651 -72 -1188 -319 -1532 -704 -317 -356 -473 -799
-473 -1344 0 -246 42 -501 117 -701 69 -187 212 -406 354 -540 229 -217 435
-336 984 -566 443 -185 549 -243 659 -359 77 -82 110 -142 126 -231 44 -236
-90 -419 -359 -491 -97 -26 -360 -36 -483 -19 -186 27 -389 104 -584 222 -47
28 -179 121 -292 207 -123 92 -237 170 -281 191 -313 148 -442 -104 -445 -864
l-1 -241 39 -79 c76 -155 295 -341 561 -477 346 -177 706 -275 1168 -319 156
-14 505 -6 660 15 551 78 974 303 1249 664 170 222 256 418 319 721 51 246 52
572 3 811 -44 213 -151 457 -268 610 -245 322 -499 490 -1231 815 -181 81
-377 171 -435 200 -234 121 -394 281 -436 437 -19 71 -18 202 2 269 81 276
363 468 689 469 252 0 418 -122 499 -369 36 -107 45 -164 56 -345 15 -240 17
-241 275 -240 259 1 421 38 584 133 278 163 415 420 428 806 13 380 -94 679
-331 919 -214 218 -534 352 -954 401 -156 18 -500 18 -667 -1z"/>
<path d="M1850 6750 c-265 -10 -1109 -58 -1169 -66 -61 -8 -90 -23 -107 -55
-22 -44 -34 -152 -34 -330 0 -91 -7 -266 -15 -390 -21 -306 -152 -2055 -225
-2989 -98 -1265 -110 -1497 -85 -1663 36 -243 117 -403 262 -520 195 -157 459
-240 928 -289 164 -17 864 -17 1050 0 728 68 1258 246 1620 542 384 315 575
729 601 1304 16 343 -60 691 -203 929 -56 92 -195 244 -291 317 -75 57 -271
159 -356 186 -31 10 -56 20 -56 24 0 3 21 12 47 19 153 40 355 163 473 288
188 197 315 481 367 816 23 152 23 457 0 587 -50 286 -157 507 -335 692 -241
250 -568 410 -1038 508 -369 77 -906 110 -1434 90z m765 -1200 c150 -15 236
-35 330 -81 227 -108 339 -297 338 -569 0 -201 -45 -322 -164 -442 -198 -198
-619 -258 -1071 -152 l-68 16 0 42 c0 22 9 174 20 336 10 162 25 411 31 553
12 247 13 258 33 262 21 4 239 32 306 38 74 8 139 7 245 -3z m60 -2454 c39 -9
112 -37 164 -61 171 -82 279 -219 332 -420 18 -66 22 -110 23 -255 1 -153 -2
-186 -22 -260 -70 -255 -219 -416 -456 -489 -239 -74 -517 -67 -844 21 l-82
23 5 45 c3 25 23 324 45 665 22 341 43 639 46 662 l5 42 57 12 c189 39 583 47
727 15z"/>
<path d="M7213 6680 c-60 -12 -78 -24 -122 -80 -199 -252 -1145 -2585 -1627
-4015 -149 -441 -301 -959 -351 -1198 -34 -164 -42 -351 -18 -433 26 -90 62
-149 134 -217 74 -69 167 -122 286 -162 140 -47 220 -55 578 -55 306 0 330 1
366 20 50 25 88 71 101 122 7 22 70 284 141 582 71 297 134 558 140 579 l10
37 754 0 c431 0 755 -4 755 -9 0 -23 52 -391 66 -464 53 -283 148 -491 282
-619 118 -113 241 -173 452 -219 98 -21 132 -23 514 -27 468 -4 475 -3 524 71
81 123 9 483 -567 2832 -368 1500 -587 2378 -627 2515 -134 447 -299 646 -606
727 -54 14 -137 17 -603 19 -297 1 -559 -1 -582 -6z m692 -1965 c59 -368 140
-879 181 -1134 40 -255 74 -466 74 -468 0 -1 -225 -3 -500 -3 -275 0 -500 1
-500 3 0 3 358 1301 516 1870 66 236 120 423 121 415 2 -7 50 -314 108 -683z"/>
<path d="M11299 6681 c-81 -26 -85 -39 -93 -291 -9 -236 -35 -609 -146 -2050
-177 -2289 -202 -2657 -204 -2990 -1 -225 2 -275 17 -330 74 -275 270 -430
611 -485 76 -12 259 -15 1087 -15 l996 0 95 24 c156 40 235 89 300 190 74 115
89 194 118 610 22 321 22 322 -39 363 l-34 23 -803 0 -804 0 0 36 c0 20 63
928 141 2018 154 2164 160 2281 121 2424 -31 116 -74 196 -146 270 -96 100
-202 150 -403 188 -69 13 -164 17 -438 20 -192 2 -362 0 -376 -5z"/>
<path d="M15176 6677 c-63 -20 -72 -47 -79 -249 -9 -230 -38 -641 -157 -2183
-165 -2144 -189 -2488 -197 -2840 -7 -309 3 -382 67 -511 75 -152 196 -254
372 -312 188 -62 182 -62 1279 -62 l996 0 96 24 c150 38 232 91 296 191 75
115 92 204 121 611 21 302 18 323 -39 361 l-34 23 -809 0 -808 0 5 52 c5 39
189 2650 291 4103 8 115 -10 286 -40 375 -78 229 -236 350 -531 406 -117 22
-767 31 -829 11z"/>
</g>
</svg>
